<svg xmlns="http://www.w3.org/2000/svg" width="296.7" height="91" viewBox="0 0 296.7 91">
  <defs>
    <style>
      .a {
        fill: #fff;
      }

      .b {
        fill: #eb7323;
      }
    </style>
  </defs>
  <title>Asset 2</title>
  <g>
    <path class="a" d="M10.7,0A10.49,10.49,0,0,0,0,10.2V91H296.7V0Z"/>
    <path d="M293.7,3H10.7A7.48,7.48,0,0,0,3,10.2V88H293.7Z"/>
    <g>
      <path class="b" d="M291.8,50.2h1.9V41.7c-.6,0-1.2.1-1.8.1a31.54,31.54,0,0,1-31.6-31.6,33.59,33.59,0,0,1,.8-7.1h-8.5a44,44,0,0,0-.7,7.3A39.93,39.93,0,0,0,291.8,50.2Z"/>
      <path class="b" d="M293.6,27A17.83,17.83,0,0,1,276.9,3h-8.3a26,26,0,0,0-.6,5.6,25.65,25.65,0,0,0,25.6,25.6h.2V27.1A.31.31,0,0,0,293.6,27Z"/>
      <path class="b" d="M285.8,3a9.6,9.6,0,0,0-1.9,5.8,9.82,9.82,0,0,0,9.8,9.8h.1V3Z"/>
    </g>
    <g>
      <path class="a" d="M56.9,35.8H39V56.9c.1,2.8.6,3.9,3.5,3.9,4,0,3.9-2.9,4-6.1l.1-2.5H58.9v4.2c0,12.8-4.8,15.7-17.3,15.7-9.9,0-18-1.3-18-13.1V35.8H17.9V24.5h5.7v-10H39v10H56.8l.1,11.3Z"/>
      <path class="a" d="M85.6,42.8c0-3.3.2-7-4-7-4.7,0-5.7,3.7-5.7,7.5V71.5H60.5v-47h15v6.9h.6a10.76,10.76,0,0,1,4.6-5.7A13.85,13.85,0,0,1,88,24c10.7,0,11.6,8.8,11.6,17.4v3.7H85.7l-.1-2.3Z"/>
      <path class="a" d="M113.6,48.1c0,10.2.9,12.2,8.3,12.2,7.2,0,7.9-2,7.9-12.2s-.7-12.3-7.9-12.3C114.5,35.8,113.6,37.9,113.6,48.1Zm31.6,0c0,19.3-4,24-23.6,24-19.3,0-23.5-5.2-23.5-24C98.1,28.8,102,24,121.6,24,141.4,24,145.2,28.2,145.2,48.1Z"/>
      <path class="a" d="M159.4,24.5v6.6h.6c1.9-5.6,7.6-7.2,12.9-7.2,6.6,0,13.5,1.2,14.3,9.2h.7c.8-6.7,7.2-9.2,13.1-9.2,10.8,0,16.4,4.5,16.4,15.4V71.5H202V44.3c-.3-4.9-.2-8.5-6.2-8.5s-7.2,4-7.2,9.1V71.6H173.2V43.1c-.2-4.3-.4-7.3-5.8-7.3-6.4,0-7.5,3.4-7.5,9.1V71.6H144.5v-47l14.9-.1Z"/>
      <path class="a" d="M248.7,42c0-7.3-2.7-7.7-8.1-7.7-5.7,0-7.4,1.3-7.6,7.7Zm16,14.3c0,7.4-2.4,11.6-6.6,14s-10.2,2.9-17.2,2.9c-19.3,0-23.9-6.7-23.9-25,0-18.8,4.3-25.1,23.9-25.1,18.4,0,23.9,5.1,23.9,25.1v2.7H233c0,8.6,1.3,11.1,7.9,11.1,4.9,0,8.1-.6,8.1-5.7Z"/>
    </g>
    <rect class="b" x="3" y="71.4" width="290.7" height="16.5"/>
  </g>
</svg>
